<svg width="42" height="42" viewBox="0 0 42 42" fill="none" xmlns="http://www.w3.org/2000/svg">
<path d="M39.0521 20.7286C39.0521 30.7406 30.9356 38.8662 20.9146 38.8662C10.8936 38.8662 2.77701 30.7406 2.77701 20.7286C2.77701 10.7076 10.8936 2.59108 20.9146 2.59108C30.9356 2.59108 39.0521 10.7076 39.0521 20.7286Z" fill="#283544"/>
<path d="M29.416 16.1391C29.317 16.1968 26.9609 17.4153 26.9609 20.117C27.072 23.1981 29.9342 24.2786 29.9833 24.2786C29.9342 24.3363 29.5512 25.7505 28.4166 27.233C27.5162 28.5099 26.5167 29.7974 24.9991 29.7974C23.5555 29.7974 23.0373 28.9464 21.3716 28.9464C19.5828 28.9464 19.0766 29.7974 17.707 29.7974C16.1894 29.7974 15.116 28.441 14.1664 27.176C12.9328 25.5203 11.8843 22.9221 11.8473 20.4274C11.8224 19.1054 12.0944 17.806 12.7848 16.7022C13.7593 15.1613 15.499 14.1152 17.3989 14.0807C18.8545 14.035 20.1501 15.012 21.0384 15.012C21.8898 15.012 23.4815 14.0807 25.2824 14.0807C26.0597 14.0815 28.1325 14.2997 29.416 16.1391ZM20.9153 13.8168C20.6562 12.6095 21.3716 11.4023 22.0379 10.6322C22.8892 9.7009 24.2338 9.06879 25.3934 9.06879C25.4674 10.276 24.9983 11.46 24.1598 12.3224C23.4074 13.2537 22.1119 13.9548 20.9153 13.8168Z" fill="white"/>
</svg>
